<?xml version="1.0" standalone="no"?>
<!DOCTYPE svg PUBLIC "-//W3C//DTD SVG 20010904//EN"
 "http://www.w3.org/TR/2001/REC-SVG-20010904/DTD/svg10.dtd">
<svg version="1.0" xmlns="http://www.w3.org/2000/svg"
 width="512.000000pt" height="512.000000pt" viewBox="0 0 512.000000 512.000000"
 preserveAspectRatio="xMidYMid meet">
<metadata>
Created by potrace 1.16, written by Peter Selinger 2001-2019
</metadata>
<g transform="translate(0.000000,512.000000) scale(0.100000,-0.100000)"
fill="#000000" stroke="none">
<path d="M3130 2889 c-817 -219 -1530 -409 -1585 -420 -136 -29 -286 -29 -377
0 -86 28 -174 105 -208 183 -56 127 -31 320 66 517 29 58 50 108 48 111 -5 5
-39 -32 -178 -195 -206 -241 -302 -394 -367 -585 -31 -88 -33 -104 -34 -230 0
-125 2 -139 26 -190 124 -264 443 -318 909 -156 127 44 3177 1339 3195 1357 6
6 6 9 0 8 -6 0 -678 -180 -1495 -400z"/>
</g>
</svg>
