<?xml version="1.0" encoding="UTF-8"?>
<svg width="26px" height="23px" viewBox="0 0 26 23" version="1.1" xmlns="http://www.w3.org/2000/svg" xmlns:xlink="http://www.w3.org/1999/xlink">
    <!-- Generator: Sketch 53.2 (72643) - https://sketchapp.com -->
    <title>Icon/Social/Twitter/White</title>
    <desc>Created with Sketch.</desc>
    <g id="Icon/Social/Twitter/White" stroke="none" stroke-width="1" fill="none" fill-rule="evenodd">
        <g id="Group-2" transform="translate(-2.000000, 0.000000)" fill="#FFFFFF" fill-rule="nonzero">
            <path d="M26.4807836,3.31080576 C26.5603651,3.28904371 26.642263,3.26509642 26.7282244,3.23855192 C26.8721369,3.19411241 27.0210488,3.14455806 27.2180574,3.07633629 C27.2472056,3.06624262 27.6227657,2.93502639 27.737922,2.89556857 C27.8127522,2.87000617 27.8127522,2.87000617 27.8888056,2.84441105 L28.884581,2.51076955 L28.288055,3.37508546 C28.2426461,3.44087912 28.0803221,3.68264024 28.04151,3.73881223 C27.9926586,3.80951387 27.9488697,3.87036134 27.9051241,3.92775554 C27.2668121,4.76806167 26.5755722,5.4844499 25.8127302,6.07971566 C25.7340592,6.14117101 25.7176171,6.17877043 25.7192021,6.29999647 C25.7521295,8.96683088 25.2508765,11.4441481 24.1833245,13.7208672 C21.9842354,18.411448 18.4711343,21.3648008 13.6357659,22.514898 C12.266644,22.8406447 10.9451326,22.8997317 8.87611802,22.8148025 C6.51723383,22.7181701 4.25836793,21.952718 2.00572965,20.5676342 C1.95745146,20.5381383 1.92228517,20.5134955 1.85189001,20.4618813 C1.82004212,20.4385563 1.82004212,20.4385563 1.79767258,20.4225435 L0.789238033,19.7081224 L2.02252993,19.7876759 C4.63733317,19.9563438 6.9047634,19.3891502 8.90311665,18.0037922 C6.57681894,17.4991586 5.16195997,16.0182175 4.51359476,14.0543277 L4.34743846,13.5510424 L4.87554428,13.595856 C5.22112255,13.6251808 5.52106863,13.6406828 5.79368966,13.6393757 C3.75109602,12.5611646 2.53530013,10.4216172 2.62519181,8.243447 L2.6488628,7.66987394 L3.14789407,7.95362413 C3.51267476,8.16103916 3.87741779,8.31576755 4.25712473,8.42006267 C3.5131616,7.61875565 3.02883708,6.6883831 2.79756164,5.60235928 C2.49000305,4.15808461 2.70499147,2.77001967 3.4226389,1.365835 L3.66753562,0.886657897 L4.00626052,1.30480924 C6.73463731,4.67295374 10.1791457,6.53589732 14.4037861,6.94862811 C14.3933425,6.83224324 14.3857003,6.74719074 14.3799544,6.68358467 C14.3752697,6.63176876 14.3752697,6.63176876 14.3705762,6.58005499 L14.3692937,6.56594498 C14.0937146,3.53955781 16.1670879,0.725269266 19.0523226,0.238975131 C20.84154,-0.062740047 22.4433746,0.403194945 23.7726394,1.63343062 C23.994954,1.83923675 24.1275872,1.87082809 24.3977333,1.78421796 C25.4340407,1.45250061 26.1919427,1.14815167 26.8917781,0.756161799 C26.9154905,0.743270347 26.9154905,0.743270347 26.9383797,0.731757851 C26.9710809,0.715573468 27.1018829,0.65708301 27.1316853,0.64323406 L27.8512418,0.308861255 L27.6130357,1.06571299 C27.3298327,1.96553284 26.8779614,2.72523119 26.253969,3.36923922 C26.3310718,3.35059561 26.4039334,3.33176171 26.4807836,3.31080576 Z M8.90479862,22.1153903 C10.9146298,22.1978902 12.1821017,22.1412193 13.4737655,21.8339018 C18.0974368,20.7341569 21.4392965,17.9247613 23.5495313,13.4237037 C24.5708063,11.2456775 25.0509158,8.87285625 25.0192586,6.30889358 C25.014927,5.97761017 25.1231482,5.73013334 25.3819515,5.52796421 C25.9836615,5.05843395 26.5400562,4.50586041 27.0618184,3.86731071 C27.018625,3.88121197 26.9765801,3.89447514 26.9347584,3.9073895 C26.8417907,3.9360975 26.7526402,3.96216549 26.6651819,3.98608143 C26.3837906,4.06281286 26.1587069,4.11174131 25.6543308,4.21224463 C25.4371255,4.25552574 25.3396312,4.27530066 25.2211159,4.30058494 L24.9272786,4.36327273 L24.8208044,4.08232192 C24.8135225,4.0632035 24.8135225,4.0632035 24.8057465,4.04299034 C24.7977605,4.02223334 24.7977605,4.02223334 24.7894372,4.00038159 L24.6930502,3.74604765 L24.9157009,3.58983352 C25.659618,3.06789335 26.2187469,2.44688053 26.6054458,1.69049812 C26.0298433,1.96240958 25.3943627,2.20018838 24.611288,2.45084704 C24.0967282,2.61581746 23.7017959,2.5217502 23.2971379,2.14714098 C22.128472,1.06553968 20.7456555,0.663311759 19.1686919,0.929234639 C16.6509216,1.3535942 14.8234341,3.83413019 15.0664133,6.50250851 L15.0677048,6.51671675 C15.072416,6.56862548 15.072416,6.56862548 15.0771156,6.62060613 C15.0882545,6.74391159 15.1064841,6.94741322 15.1382716,7.30172825 L15.1753018,7.71287808 L14.7636328,7.68215313 C10.3420628,7.35214886 6.70203435,5.52691008 3.81849409,2.17229663 C3.35786576,3.26700323 3.24454575,4.34050726 3.48220969,5.4565613 C3.7582452,6.75276962 4.43552923,7.79035539 5.55311884,8.65438854 L6.40953598,9.3165035 L5.32759652,9.28109815 C4.61127977,9.25765742 3.96208618,9.1093254 3.33409935,8.83125654 C3.49008376,10.9108156 4.98013745,12.8538179 7.25119335,13.4628257 L8.45268607,13.7850187 L7.25946512,14.1366107 C6.66130818,14.3128623 6.10097325,14.3634652 5.36492046,14.3300747 C6.08309232,16.0129716 7.50200313,17.1907967 9.8099985,17.4416693 L10.6476331,17.5327179 L9.99202195,18.0619584 C8.03581363,19.6411031 5.82318958,20.4334968 3.31029775,20.5103241 C5.15301379,21.4946928 6.99750335,22.0372574 8.90479862,22.1153903 Z" id="Stroke-1"></path>
        </g>
    </g>
</svg>